<svg width="507" height="69" viewBox="0 0 507 69" fill="none" xmlns="http://www.w3.org/2000/svg">
<path d="M0 55.4706H6.40486V12.1765H0V0H29.7923C33.0271 0 35.8737 0.45098 38.3321 1.35294C40.8553 2.2549 42.9579 3.47899 44.64 5.02521C46.3868 6.57143 47.6807 8.43978 48.5217 10.6303C49.4274 12.7563 49.8803 15.0756 49.8803 17.5882V18.7479C49.8803 22.6134 48.7805 25.7059 46.5808 28.0252C44.4459 30.3445 41.7287 31.9552 38.4292 32.8571V34.5966C41.7287 35.4986 44.4459 37.1415 46.5808 39.5252C48.7805 41.8445 49.8803 44.937 49.8803 48.8025V49.9622C49.8803 52.4748 49.4274 54.8263 48.5217 57.0168C47.6807 59.1429 46.3868 61.0112 44.64 62.6218C42.9579 64.1681 40.8553 65.3922 38.3321 66.2941C35.8737 67.1961 33.0271 67.647 29.7923 67.647H0V55.4706ZM19.2146 55.4706H28.5308C31.248 55.4706 33.4476 54.8908 35.1297 53.7311C36.8118 52.5714 37.6528 50.6387 37.6528 47.9328V47.3529C37.6528 44.6471 36.8118 42.7143 35.1297 41.5546C33.4476 40.395 31.248 39.8151 28.5308 39.8151H19.2146V55.4706ZM19.2146 27.6387H28.5308C31.248 27.6387 33.4476 27.091 35.1297 25.9958C36.8118 24.8361 37.6528 22.9034 37.6528 20.1975V19.6176C37.6528 16.9118 36.8118 15.0112 35.1297 13.916C33.4476 12.7563 31.248 12.1765 28.5308 12.1765H19.2146V27.6387Z" fill="#0A0A0A"/>
<path d="M118.433 67.647H105.624V47.3529C105.624 45.8067 105.203 44.5504 104.362 43.584C103.586 42.6176 102.259 42.1345 100.383 42.1345H85.6326V67.647H72.8229V0H98.8305C102.324 0 105.397 0.483193 108.05 1.44958C110.702 2.41597 112.902 3.76891 114.649 5.50841C116.46 7.18347 117.819 9.14846 118.724 11.4034C119.695 13.6583 120.18 16.0742 120.18 18.6513V20.9706C120.18 23.7409 119.436 26.3501 117.948 28.7983C116.46 31.1821 114.163 33.0182 111.058 34.3067V36.0462C113.322 36.3039 115.101 37.1737 116.395 38.6555C117.754 40.1373 118.433 42.0056 118.433 44.2605V67.647ZM85.6326 29.958H97.8601C100.965 29.958 103.327 29.2493 104.944 27.8319C106.562 26.3501 107.37 24.2885 107.37 21.6471V20.4874C107.37 18.2325 106.562 16.2997 104.944 14.6891C103.327 13.014 100.965 12.1765 97.8601 12.1765H85.6326V29.958Z" fill="#0A0A0A"/>
<path d="M177.185 53.1513H154.089L150.789 67.647H137.397L153.603 0H177.67L193.876 67.647H180.484L177.185 53.1513ZM156.806 40.9748H174.371L166.51 6.37815H164.763L156.806 40.9748Z" fill="#0A0A0A"/>
<path d="M215.849 0H264.758V12.1765H246.708L234.869 67.647H222.059L233.899 12.1765H215.849V0Z" fill="#0A0A0A"/>
<path d="M321.375 67.647H308.371L312.738 47.3529C312.868 46.7087 312.932 46.1933 312.932 45.8067C312.932 44.7115 312.577 43.8417 311.865 43.1975C311.153 42.4888 310.053 42.1345 308.565 42.1345H294.494L289.06 67.647H276.347L290.709 0H314.582C317.752 0 320.534 0.45098 322.928 1.35294C325.386 2.19048 327.424 3.35014 329.042 4.83193C330.724 6.2493 331.953 7.95658 332.729 9.95378C333.57 11.951 333.991 14.0448 333.991 16.2353C333.991 20.9384 332.891 24.7717 330.691 27.7353C328.556 30.6345 325.257 32.8249 320.793 34.3067V36.0462C322.669 36.2395 324.092 36.916 325.063 38.0756C326.098 39.1709 326.615 40.5882 326.615 42.3277C326.615 42.972 326.551 43.6162 326.421 44.2605L321.375 67.647ZM297.114 29.958H308.759C312.188 29.958 315.003 29.056 317.202 27.2521C319.402 25.4482 320.502 23 320.502 19.9076C320.502 17.4594 319.822 15.5588 318.464 14.2059C317.17 12.8529 315.164 12.1765 312.447 12.1765H300.899L297.114 29.958Z" fill="#0A0A0A"/>
<path d="M387.793 53.1513H364.697L361.397 67.647H348.005L364.212 0H388.278L404.485 67.647H391.093L387.793 53.1513ZM367.414 40.9748H384.979L377.118 6.37815H375.372L367.414 40.9748Z" fill="#0A0A0A"/>
<path d="M433.832 0L445.283 27.6387H447.612L459.063 0H472.941L458.966 32.8571V34.5966L472.941 67.647H459.063L447.612 39.8151H445.283L433.832 67.647H419.955L433.929 34.5966V32.8571L419.955 0H433.832Z" fill="#0A0A0A"/>
<path d="M507 59.8193C507 61.1078 506.741 62.3319 506.224 63.4916C505.771 64.5868 505.124 65.5532 504.283 66.3908C503.442 67.1639 502.439 67.7759 501.274 68.2269C500.175 68.7423 499.01 69 497.781 69C496.487 69 495.29 68.7423 494.19 68.2269C493.09 67.7759 492.12 67.1639 491.279 66.3908C490.438 65.5532 489.759 64.5868 489.241 63.4916C488.788 62.3319 488.562 61.1078 488.562 59.8193C488.562 58.5308 488.788 57.3389 489.241 56.2437C489.759 55.084 490.438 54.1176 491.279 53.3445C492.12 52.507 493.09 51.8627 494.19 51.4118C495.29 50.8964 496.487 50.6386 497.781 50.6386C499.01 50.6386 500.175 50.8964 501.274 51.4118C502.439 51.8627 503.442 52.507 504.283 53.3445C505.124 54.1176 505.771 55.084 506.224 56.2437C506.741 57.3389 507 58.5308 507 59.8193Z" fill="#D4FF00"/>
</svg>
