<svg width="506" height="69" viewBox="0 0 506 69" fill="none" xmlns="http://www.w3.org/2000/svg">
<path d="M0 55.4706H6.39223V12.1765H0V0H29.7336C32.962 0 35.803 0.45098 38.2565 1.35294C40.7747 2.2549 42.8732 3.47899 44.5519 5.02521C46.2953 6.57143 47.5866 8.43978 48.426 10.6303C49.33 12.7563 49.7819 15.0756 49.7819 17.5882V18.7479C49.7819 22.6134 48.6843 25.7059 46.489 28.0252C44.3582 30.3445 41.6464 31.9552 38.3534 32.8571V34.5966C41.6464 35.4986 44.3582 37.1415 46.489 39.5252C48.6843 41.8445 49.7819 44.937 49.7819 48.8025V49.9622C49.7819 52.4748 49.33 54.8263 48.426 57.0168C47.5866 59.1429 46.2953 61.0112 44.5519 62.6218C42.8732 64.1681 40.7747 65.3922 38.2565 66.2941C35.803 67.1961 32.962 67.6471 29.7336 67.6471H0V55.4706ZM19.1767 55.4706H28.4745C31.1863 55.4706 33.3817 54.8908 35.0604 53.7311C36.7392 52.5714 37.5786 50.6387 37.5786 47.9328V47.3529C37.5786 44.6471 36.7392 42.7143 35.0604 41.5546C33.3817 40.395 31.1863 39.8151 28.4745 39.8151H19.1767V55.4706ZM19.1767 27.6387H28.4745C31.1863 27.6387 33.3817 27.091 35.0604 25.9958C36.7392 24.8361 37.5786 22.9034 37.5786 20.1975V19.6176C37.5786 16.9118 36.7392 15.0112 35.0604 13.916C33.3817 12.7563 31.1863 12.1765 28.4745 12.1765H19.1767V27.6387Z" fill="#E8E4DC"/>
<path d="M118.2 67.6471H105.415V47.3529C105.415 45.8067 104.996 44.5504 104.156 43.584C103.381 42.6176 102.058 42.1345 100.185 42.1345H85.4637V67.6471H72.6793V0H98.6356C102.122 0 105.189 0.483193 107.837 1.44958C110.484 2.41597 112.679 3.76891 114.422 5.50841C116.23 7.18347 117.586 9.14846 118.49 11.4034C119.459 13.6583 119.943 16.0742 119.943 18.6513V20.9706C119.943 23.7409 119.201 26.3501 117.715 28.7983C116.23 31.1821 113.938 33.0182 110.839 34.3067V36.0462C113.099 36.3039 114.874 37.1737 116.166 38.6555C117.522 40.1373 118.2 42.0056 118.2 44.2605V67.6471ZM85.4637 29.958H97.6671C100.766 29.958 103.123 29.2493 104.737 27.8319C106.351 26.3501 107.159 24.2885 107.159 21.6471V20.4874C107.159 18.2325 106.351 16.2997 104.737 14.6891C103.123 13.014 100.766 12.1765 97.6671 12.1765H85.4637V29.958Z" fill="#E8E4DC"/>
<path d="M176.835 53.1513H153.785L150.492 67.6471H137.126L153.3 0H177.32L193.494 67.6471H180.128L176.835 53.1513ZM156.497 40.9748H174.027L166.182 6.37815H164.438L156.497 40.9748Z" fill="#E8E4DC"/>
<path d="M215.423 0H264.236V12.1765H246.222L234.406 67.6471H221.621L233.437 12.1765H215.423V0Z" fill="#E8E4DC"/>
<path d="M320.741 67.6471H307.763L312.121 47.3529C312.251 46.7087 312.315 46.1933 312.315 45.8067C312.315 44.7115 311.96 43.8417 311.25 43.1975C310.539 42.4888 309.442 42.1345 307.957 42.1345H293.913L288.489 67.6471H275.802L290.136 0H313.962C317.125 0 319.902 0.45098 322.291 1.35294C324.744 2.19048 326.778 3.35014 328.393 4.83193C330.071 6.2493 331.298 7.95658 332.073 9.95378C332.912 11.951 333.332 14.0448 333.332 16.2353C333.332 20.9384 332.234 24.7717 330.039 27.7353C327.908 30.6345 324.615 32.8249 320.16 34.3067V36.0462C322.033 36.2395 323.453 36.916 324.422 38.0756C325.455 39.1709 325.971 40.5882 325.971 42.3277C325.971 42.972 325.907 43.6162 325.778 44.2605L320.741 67.6471ZM296.528 29.958H308.15C311.573 29.958 314.381 29.056 316.577 27.2521C318.772 25.4482 319.87 23 319.87 19.9076C319.87 17.4594 319.192 15.5588 317.836 14.2059C316.544 12.8529 314.543 12.1765 311.831 12.1765H300.305L296.528 29.958Z" fill="#E8E4DC"/>
<path d="M387.028 53.1513H363.977L360.685 67.6471H347.319L363.493 0H387.513L403.687 67.6471H390.321L387.028 53.1513ZM366.689 40.9748H384.22L376.375 6.37815H374.631L366.689 40.9748Z" fill="#E8E4DC"/>
<path d="M432.976 0L444.405 27.6387H446.729L458.158 0H472.008L458.061 32.8571V34.5966L472.008 67.6471H458.158L446.729 39.8151H444.405L432.976 67.6471H419.127L433.073 34.5966V32.8571L419.127 0H432.976Z" fill="#E8E4DC"/>
<path d="M506 59.8193C506 61.1078 505.742 62.3319 505.225 63.4916C504.773 64.5868 504.128 65.5532 503.288 66.3908C502.449 67.1639 501.448 67.7759 500.286 68.2269C499.188 68.7423 498.026 69 496.799 69C495.508 69 494.313 68.7423 493.216 68.2269C492.118 67.7759 491.149 67.1639 490.31 66.3908C489.471 65.5532 488.793 64.5868 488.276 63.4916C487.824 62.3319 487.598 61.1078 487.598 59.8193C487.598 58.5308 487.824 57.3389 488.276 56.2437C488.793 55.084 489.471 54.1176 490.31 53.3445C491.149 52.507 492.118 51.8627 493.216 51.4118C494.313 50.8964 495.508 50.6386 496.799 50.6386C498.026 50.6386 499.188 50.8964 500.286 51.4118C501.448 51.8627 502.449 52.507 503.288 53.3445C504.128 54.1176 504.773 55.084 505.225 56.2437C505.742 57.3389 506 58.5308 506 59.8193Z" fill="#D4FF00"/>
</svg>
