<svg width="79" height="80" viewBox="0 0 79 80" fill="none" xmlns="http://www.w3.org/2000/svg">
<rect width="79" height="79" rx="10" fill="#E8E4DC"/>
<path d="M0 66.9706H6.39223V23.6765H0V11.5H29.7336C32.962 11.5 35.803 11.951 38.2565 12.8529C40.7747 13.7549 42.8732 14.979 44.5519 16.5252C46.2953 18.0714 47.5866 19.9398 48.426 22.1303C49.33 24.2563 49.7819 26.5756 49.7819 29.0882V30.2479C49.7819 34.1134 48.6843 37.2059 46.489 39.5252C44.3582 41.8445 41.6464 43.4552 38.3534 44.3571V46.0966C41.6464 46.9986 44.3582 48.6415 46.489 51.0252C48.6843 53.3445 49.7819 56.437 49.7819 60.3025V61.4622C49.7819 63.9748 49.33 66.3263 48.426 68.5168C47.5866 70.6429 46.2953 72.5112 44.5519 74.1218C42.8732 75.6681 40.7747 76.8922 38.2565 77.7941C35.803 78.6961 32.962 79.147 29.7336 79.147H0V66.9706ZM19.1767 66.9706H28.4745C31.1863 66.9706 33.3817 66.3908 35.0604 65.2311C36.7392 64.0714 37.5786 62.1387 37.5786 59.4328V58.8529C37.5786 56.1471 36.7392 54.2143 35.0604 53.0546C33.3817 51.895 31.1863 51.3151 28.4745 51.3151H19.1767V66.9706ZM19.1767 39.1387H28.4745C31.1863 39.1387 33.3817 38.591 35.0604 37.4958C36.7392 36.3361 37.5786 34.4034 37.5786 31.6975V31.1176C37.5786 28.4118 36.7392 26.5112 35.0604 25.416C33.3817 24.2563 31.1863 23.6765 28.4745 23.6765H19.1767V39.1387Z" fill="#0A0A0A"/>
<path d="M79 69.9664C79 71.2549 78.7417 72.479 78.2252 73.6386C77.7732 74.7339 77.1275 75.7003 76.2881 76.5378C75.4488 77.3109 74.448 77.923 73.2857 78.3739C72.1881 78.8893 71.0259 79.147 69.7991 79.147C68.5077 79.147 67.3132 78.8893 66.2155 78.3739C65.1179 77.923 64.1494 77.3109 63.31 76.5378C62.4706 75.7003 61.7926 74.7339 61.2761 73.6386C60.8241 72.479 60.5981 71.2549 60.5981 69.9664C60.5981 68.6779 60.8241 67.486 61.2761 66.3907C61.7926 65.2311 62.4706 64.2647 63.31 63.4916C64.1494 62.654 65.1179 62.0098 66.2155 61.5588C67.3132 61.0434 68.5077 60.7857 69.7991 60.7857C71.0259 60.7857 72.1881 61.0434 73.2857 61.5588C74.448 62.0098 75.4488 62.654 76.2881 63.4916C77.1275 64.2647 77.7732 65.2311 78.2252 66.3907C78.7417 67.486 79 68.6779 79 69.9664Z" fill="#D4FF00"/>
</svg>
