<svg width="594" height="186" viewBox="0 0 594 186" fill="none" xmlns="http://www.w3.org/2000/svg">
<path d="M0 76.6402H8.80118V16.8235H0V0H40.9388C45.3839 0 49.2955 0.623091 52.6738 1.86927C56.1409 3.11545 59.0302 4.8067 61.3416 6.94302C63.7419 9.07933 65.5199 11.6607 66.6756 14.6871C67.9203 17.6246 68.5426 20.829 68.5426 24.3005V25.9028C68.5426 31.2436 67.0312 35.5162 64.0086 38.7206C61.0749 41.9251 57.3411 44.1504 52.8071 45.3966V47.8C57.3411 49.0461 61.0749 51.316 64.0086 54.6095C67.0312 57.8139 68.5426 62.0865 68.5426 67.4273V69.0296C68.5426 72.5011 67.9203 75.75 66.6756 78.7765C65.5199 81.7139 63.7419 84.2953 61.3416 86.5206C59.0302 88.6569 56.1409 90.3482 52.6738 91.5943C49.2955 92.8405 45.3839 93.4636 40.9388 93.4636H0V76.6402ZM26.4036 76.6402H39.2053C42.9391 76.6402 45.9617 75.839 48.2732 74.2368C50.5846 72.6346 51.7403 69.9642 51.7403 66.2256V65.4245C51.7403 61.686 50.5846 59.0156 48.2732 57.4134C45.9617 55.8111 42.9391 55.01 39.2053 55.01H26.4036V76.6402ZM26.4036 38.1866H39.2053C42.9391 38.1866 45.9617 37.43 48.2732 35.9167C50.5846 34.3145 51.7403 31.6441 51.7403 27.9056V27.1045C51.7403 23.3659 50.5846 20.74 48.2732 19.2268C45.9617 17.6246 42.9391 16.8235 39.2053 16.8235H26.4036V38.1866Z" fill="#E8E4DC"/>
<path d="M157.188 93.4636H139.585V65.4245C139.585 63.2882 139.007 61.5525 137.852 60.2173C136.785 58.8821 134.962 58.2145 132.384 58.2145H112.115V93.4636H94.5126V0H130.251C135.051 0 139.274 0.667597 142.919 2.00279C146.564 3.33799 149.587 5.20726 151.987 7.61061C154.476 9.92495 156.343 12.6398 157.588 15.7553C158.921 18.8707 159.588 22.2087 159.588 25.7693V28.9737C159.588 32.8013 158.566 36.4063 156.521 39.7888C154.476 43.0823 151.32 45.6191 147.053 47.3994V49.8028C150.165 50.1588 152.609 51.3605 154.387 53.4078C156.254 55.4551 157.188 58.0364 157.188 61.1519V93.4636ZM112.115 41.391H128.917C133.184 41.391 136.429 40.4119 138.652 38.4536C140.874 36.4063 141.986 33.5579 141.986 29.9084V28.3061C141.986 25.1907 140.874 22.5203 138.652 20.295C136.429 17.9806 133.184 16.8235 128.917 16.8235H112.115V41.391Z" fill="#E8E4DC"/>
<path d="M232.364 73.4357H200.627L196.093 93.4636H177.69L199.96 0H233.031L255.301 93.4636H236.898L232.364 73.4357ZM204.361 56.6122H228.497L217.696 8.81229H215.295L204.361 56.6122Z" fill="#E8E4DC"/>
<path d="M262.791 0H330V16.8235H305.197L288.928 93.4636C288.928 93.4636 278.2 93.4636 271.325 93.4636C277.679 63.5338 287.594 16.8235 287.594 16.8235H262.791V0Z" fill="#E8E4DC"/>
<path fill-rule="evenodd" clip-rule="evenodd" d="M271.325 93.4636H288.928L272.659 168.991C272.659 168.991 261.931 168.991 255.057 168.991C261.41 139.496 271.325 93.4636 271.325 93.4636Z" fill="#E8E4DC"/>
<path d="M272.659 168.991H255.057L251.446 186H269.048L272.659 168.991Z" fill="#E8E4DC"/>
<path d="M359.805 186H341.956L347.95 158.1C348.128 157.214 348.216 156.506 348.216 155.974C348.216 154.469 347.728 153.273 346.751 152.387C345.774 151.413 344.265 150.926 342.222 150.926H322.908L315.449 186H298L317.714 93H350.481C354.832 93 358.65 93.62 361.936 94.86C365.31 96.0114 368.108 97.6057 370.328 99.6429C372.636 101.591 374.324 103.939 375.389 106.684C376.544 109.43 377.121 112.309 377.121 115.32C377.121 121.786 375.611 127.056 372.592 131.13C369.662 135.116 365.133 138.127 359.006 140.164V142.556C361.581 142.821 363.534 143.751 364.866 145.346C366.287 146.851 366.998 148.8 366.998 151.191C366.998 152.077 366.909 152.963 366.731 153.849L359.805 186ZM326.505 134.186H342.489C347.195 134.186 351.058 132.946 354.077 130.466C357.096 127.986 358.606 124.62 358.606 120.369C358.606 117.003 357.674 114.39 355.809 112.53C354.033 110.67 351.28 109.74 347.55 109.74H331.7L326.505 134.186Z" fill="#E8E4DC"/>
<path d="M443.41 166.071H411.708L407.18 186H388.798L411.042 93H444.076L466.32 186H447.939L443.41 166.071ZM415.438 149.331H439.547L428.758 101.769H426.36L415.438 149.331Z" fill="#E8E4DC"/>
<path d="M501.052 93L516.77 130.997H519.967L535.684 93H554.732L535.551 138.171V140.563L554.732 186H535.684L519.967 147.737H516.77L501.052 186H482.005L501.185 140.563V138.171L482.005 93H501.052Z" fill="#E8E4DC"/>
<path d="M594 175.851C594 181.456 589.445 186 583.825 186C578.206 186 573.65 181.456 573.65 175.851C573.65 170.246 578.206 165.702 583.825 165.702C589.445 165.702 594 170.246 594 175.851Z" fill="#D4FF00"/>
</svg>
