<svg width="406" height="127" viewBox="0 0 406 127" fill="none" xmlns="http://www.w3.org/2000/svg">
<path d="M0 52.3296H6.00081V11.487H0V0H27.9128C30.9436 0 33.6106 0.425444 35.9139 1.27633C38.2779 2.12722 40.2478 3.282 41.8238 4.74066C43.4604 6.19933 44.6727 7.96188 45.4607 10.0283C46.3093 12.034 46.7336 14.222 46.7336 16.5923V17.6863C46.7336 21.333 45.7031 24.2503 43.6422 26.4383C41.642 28.6263 39.0962 30.1457 36.0048 30.9966V32.6376C39.0962 33.4885 41.642 35.0383 43.6422 37.2871C45.7031 39.4751 46.7336 42.3924 46.7336 46.0391V47.1331C46.7336 49.5034 46.3093 51.7218 45.4607 53.7882C44.6727 55.7939 43.4604 57.5564 41.8238 59.0759C40.2478 60.5346 38.2779 61.6893 35.9139 62.5402C33.6106 63.3911 30.9436 63.8166 27.9128 63.8166H0V52.3296ZM18.0024 52.3296H26.7309C29.2767 52.3296 31.3376 51.7826 32.9135 50.6886C34.4895 49.5946 35.2775 47.7712 35.2775 45.2186V44.6716C35.2775 42.1189 34.4895 40.2956 32.9135 39.2016C31.3376 38.1076 29.2767 37.5606 26.7309 37.5606H18.0024V52.3296ZM18.0024 26.0736H26.7309C29.2767 26.0736 31.3376 25.557 32.9135 24.5238C34.4895 23.4298 35.2775 21.6065 35.2775 19.0538V18.5068C35.2775 15.9541 34.4895 14.1612 32.9135 13.128C31.3376 12.034 29.2767 11.487 26.7309 11.487H18.0024V26.0736Z" fill="#0A0A0A"/>
<path d="M0 52.3296H6.00081V11.487H0V0H27.9128C30.9436 0 33.6106 0.425444 35.9139 1.27633C38.2779 2.12722 40.2478 3.282 41.8238 4.74066C43.4604 6.19933 44.6727 7.96188 45.4607 10.0283C46.3093 12.034 46.7336 14.222 46.7336 16.5923V17.6863C46.7336 21.333 45.7031 24.2503 43.6422 26.4383C41.642 28.6263 39.0962 30.1457 36.0048 30.9966V32.6376C39.0962 33.4885 41.642 35.0383 43.6422 37.2871C45.7031 39.4751 46.7336 42.3924 46.7336 46.0391V47.1331C46.7336 49.5034 46.3093 51.7218 45.4607 53.7882C44.6727 55.7939 43.4604 57.5564 41.8238 59.0759C40.2478 60.5346 38.2779 61.6893 35.9139 62.5402C33.6106 63.3911 30.9436 63.8166 27.9128 63.8166H0V52.3296ZM18.0024 52.3296H26.7309C29.2767 52.3296 31.3376 51.7826 32.9135 50.6886C34.4895 49.5946 35.2775 47.7712 35.2775 45.2186V44.6716C35.2775 42.1189 34.4895 40.2956 32.9135 39.2016C31.3376 38.1076 29.2767 37.5606 26.7309 37.5606H18.0024V52.3296ZM18.0024 26.0736H26.7309C29.2767 26.0736 31.3376 25.557 32.9135 24.5238C34.4895 23.4298 35.2775 21.6065 35.2775 19.0538V18.5068C35.2775 15.9541 34.4895 14.1612 32.9135 13.128C31.3376 12.034 29.2767 11.487 26.7309 11.487H18.0024V26.0736Z" fill="#0A0A0A"/>
<path d="M107.173 63.8166H95.1718V44.6716C95.1718 43.2129 94.7778 42.0278 93.9898 41.1161C93.2625 40.2044 92.0199 39.7486 90.2621 39.7486H76.442V63.8166H64.4404V0H88.8073C92.0805 0 94.9597 0.455832 97.4449 1.3675C99.93 2.27916 101.991 3.5555 103.627 5.19649C105.325 6.77671 106.598 8.63043 107.446 10.7576C108.355 12.8849 108.81 15.164 108.81 17.5951V19.7831C108.81 22.3966 108.113 24.8581 106.719 27.1676C105.325 29.4164 103.173 31.1486 100.263 32.3641V34.0051C102.385 34.2482 104.052 35.0687 105.264 36.4666C106.537 37.8645 107.173 39.627 107.173 41.7543V63.8166ZM76.442 28.2616H87.8981C90.8076 28.2616 93.02 27.5931 94.5354 26.256C96.0507 24.8581 96.8084 22.9132 96.8084 20.4213V19.3273C96.8084 17.2001 96.0507 15.3768 94.5354 13.8573C93.02 12.2771 90.8076 11.487 87.8981 11.487H76.442V28.2616Z" fill="#0A0A0A"/>
<path d="M107.173 63.8166H95.1718V44.6716C95.1718 43.2129 94.7778 42.0278 93.9898 41.1161C93.2625 40.2044 92.0199 39.7486 90.2621 39.7486H76.442V63.8166H64.4404V0H88.8073C92.0805 0 94.9597 0.455832 97.4449 1.3675C99.93 2.27916 101.991 3.5555 103.627 5.19649C105.325 6.77671 106.598 8.63043 107.446 10.7576C108.355 12.8849 108.81 15.164 108.81 17.5951V19.7831C108.81 22.3966 108.113 24.8581 106.719 27.1676C105.325 29.4164 103.173 31.1486 100.263 32.3641V34.0051C102.385 34.2482 104.052 35.0687 105.264 36.4666C106.537 37.8645 107.173 39.627 107.173 41.7543V63.8166ZM76.442 28.2616H87.8981C90.8076 28.2616 93.02 27.5931 94.5354 26.256C96.0507 24.8581 96.8084 22.9132 96.8084 20.4213V19.3273C96.8084 17.2001 96.0507 15.3768 94.5354 13.8573C93.02 12.2771 90.8076 11.487 87.8981 11.487H76.442V28.2616Z" fill="#0A0A0A"/>
<path d="M158.43 50.1416H136.791L133.7 63.8166H121.153L136.336 0H158.885L174.069 63.8166H161.522L158.43 50.1416ZM139.337 38.6546H155.794L148.429 6.01699H146.792L139.337 38.6546Z" fill="#0A0A0A"/>
<path d="M158.43 50.1416H136.791L133.7 63.8166H121.153L136.336 0H158.885L174.069 63.8166H161.522L158.43 50.1416ZM139.337 38.6546H155.794L148.429 6.01699H146.792L139.337 38.6546Z" fill="#0A0A0A"/>
<path d="M225 0H179.176V11.487H196.087L184.995 63.8165C180.663 84.2525 178.356 94.9768 173.902 115.386L171.44 127H183.442L185.904 115.386L196.996 63.8165L208.089 11.487H225V0Z" fill="#0A0A0A"/>
<path d="M225 0H179.176V11.487H196.087L184.995 63.8165C180.663 84.2525 178.356 94.9768 173.902 115.386L171.44 127H183.442L185.904 115.386L196.996 63.8165L208.089 11.487H225V0Z" fill="#0A0A0A"/>
<path d="M245.386 127H233.145L237.256 107.8C237.378 107.19 237.439 106.703 237.439 106.337C237.439 105.301 237.104 104.478 236.434 103.869C235.764 103.198 234.729 102.863 233.328 102.863H220.082L214.967 127H203L216.52 63H238.992C241.976 63 244.595 63.4267 246.848 64.28C249.162 65.0724 251.081 66.1695 252.603 67.5714C254.186 68.9124 255.344 70.5276 256.074 72.4171C256.866 74.3067 257.262 76.2876 257.262 78.36C257.262 82.8095 256.227 86.4362 254.156 89.24C252.146 91.9829 249.04 94.0552 244.838 95.4571V97.1029C246.604 97.2857 247.944 97.9257 248.858 99.0229C249.832 100.059 250.319 101.4 250.319 103.046C250.319 103.655 250.258 104.265 250.137 104.874L245.386 127ZM222.549 91.3429H233.511C236.739 91.3429 239.388 90.4895 241.458 88.7829C243.529 87.0762 244.564 84.76 244.564 81.8343C244.564 79.5181 243.925 77.72 242.646 76.44C241.428 75.16 239.54 74.52 236.982 74.52H226.112L222.549 91.3429Z" fill="#0A0A0A"/>
<path d="M302.724 113.286H280.982L277.877 127H265.27L280.526 63H303.18L318.436 127H305.83L302.724 113.286ZM283.54 101.766H300.075L292.675 69.0343H291.031L283.54 101.766Z" fill="#0A0A0A"/>
<path d="M342.255 63L353.035 89.1486H355.227L366.006 63H379.069L365.915 94.0857V95.7314L379.069 127H366.006L355.227 100.669H353.035L342.255 127H329.192L342.347 95.7314V94.0857L329.192 63H342.255Z" fill="#0A0A0A"/>
<path d="M406 120.016C406 123.873 402.876 127 399.022 127C395.168 127 392.044 123.873 392.044 120.016C392.044 116.159 395.168 113.032 399.022 113.032C402.876 113.032 406 116.159 406 120.016Z" fill="#D4FF00"/>
</svg>
