<svg width="637" height="199" viewBox="0 0 637 199" fill="none" xmlns="http://www.w3.org/2000/svg">
<path d="M0 81.9967H9.40284V17.9993H0V0H43.7375C48.4864 0 52.6654 0.66664 56.2746 1.99992C59.9787 3.3332 63.0655 5.14265 65.5349 7.42828C68.0994 9.7139 69.9989 12.4757 71.2336 15.7137C72.5633 18.8564 73.2282 22.2848 73.2282 25.999V27.7132C73.2282 33.4272 71.6135 37.9985 68.3843 41.4269C65.25 44.8554 61.2609 47.2362 56.417 48.5695V51.1408C61.2609 52.4741 65.25 54.9026 68.3843 58.4262C71.6135 61.8547 73.2282 66.4259 73.2282 72.14V73.8542C73.2282 77.5683 72.5633 81.0444 71.2336 84.2824C69.9989 87.4251 68.0994 90.1869 65.5349 92.5677C63.0655 94.8534 59.9787 96.6628 56.2746 97.9961C52.6654 99.3294 48.4864 99.996 43.7375 99.996H0V81.9967ZM28.2085 81.9967H41.8854C45.8745 81.9967 49.1037 81.1396 51.5732 79.4254C54.0426 77.7112 55.2773 74.8542 55.2773 70.8543V69.9972C55.2773 65.9974 54.0426 63.1403 51.5732 61.4261C49.1037 59.7119 45.8745 58.8548 41.8854 58.8548H28.2085V81.9967ZM28.2085 40.8555H41.8854C45.8745 40.8555 49.1037 40.046 51.5732 38.427C54.0426 36.7128 55.2773 33.8558 55.2773 29.856V28.9988C55.2773 24.999 54.0426 22.1896 51.5732 20.5706C49.1037 18.8564 45.8745 17.9993 41.8854 17.9993H28.2085V40.8555Z" fill="#E8E4DC"/>
<path d="M167.933 99.996H149.127V69.9972C149.127 67.7116 148.51 65.8545 147.275 64.426C146.136 62.9975 144.189 62.2832 141.434 62.2832H119.779V99.996H100.974V0H139.155C144.284 0 148.795 0.714257 152.689 2.14277C156.583 3.57129 159.813 5.57121 162.377 8.14254C165.036 10.6186 167.031 13.5233 168.361 16.8565C169.785 20.1897 170.498 23.761 170.498 27.5703V30.9988C170.498 35.0938 169.405 38.9508 167.221 42.5697C165.036 46.0934 161.665 48.8076 157.106 50.7123V53.2836C160.43 53.6645 163.042 54.9502 164.941 57.1406C166.936 59.331 167.933 62.0928 167.933 65.426V99.996ZM119.779 44.284H137.73C142.289 44.284 145.756 43.2364 148.13 41.1412C150.505 38.9508 151.692 35.9033 151.692 31.9987V30.2845C151.692 26.9513 150.505 24.0943 148.13 21.7134C145.756 19.2373 142.289 17.9993 137.73 17.9993H119.779V44.284Z" fill="#E8E4DC"/>
<path d="M248.249 78.5683H214.342L209.498 99.996H189.837L213.629 0H248.961L272.753 99.996H253.093L248.249 78.5683ZM218.331 60.569H244.117L232.578 9.4282H230.013L218.331 60.569Z" fill="#E8E4DC"/>
<path d="M352.559 0H280.756V17.9993H307.254L289.873 99.996C283.086 132.018 279.471 148.822 272.492 180.802L268.635 199H287.441L291.298 180.802L308.679 99.996L326.06 17.9993H352.559V0Z" fill="#E8E4DC"/>
<path d="M384.503 199H365.322L371.764 168.915C371.955 167.96 372.05 167.196 372.05 166.623C372.05 164.999 371.525 163.71 370.475 162.755C369.426 161.704 367.804 161.179 365.609 161.179H344.854L336.838 199H318.087L339.271 98.7165H374.483C379.159 98.7165 383.263 99.3851 386.793 100.722C390.42 101.964 393.425 103.683 395.811 105.88C398.292 107.981 400.105 110.512 401.25 113.473C402.491 116.433 403.111 119.537 403.111 122.785C403.111 129.757 401.489 135.439 398.244 139.833C395.095 144.131 390.229 147.378 383.644 149.575V152.153C386.412 152.44 388.511 153.443 389.942 155.162C391.469 156.785 392.233 158.887 392.233 161.465C392.233 162.42 392.137 163.375 391.946 164.331L384.503 199ZM348.718 143.128H365.895C370.953 143.128 375.104 141.791 378.348 139.116C381.593 136.442 383.215 132.813 383.215 128.229C383.215 124.599 382.213 121.782 380.209 119.776C378.3 117.77 375.342 116.768 371.334 116.768H354.301L348.718 143.128Z" fill="#E8E4DC"/>
<path d="M474.347 177.511H440.28L435.413 199H415.66L439.564 98.7165H475.062L498.967 199H479.213L474.347 177.511ZM444.287 159.46H470.196L458.601 108.172H456.025L444.287 159.46Z" fill="#E8E4DC"/>
<path d="M536.29 98.7165L553.18 139.689H556.616L573.506 98.7165H593.975L573.363 147.426V150.004L593.975 199H573.506L556.616 157.741H553.18L536.29 199H515.821L536.433 150.004V147.426L515.821 98.7165H536.29Z" fill="#E8E4DC"/>
<path d="M636.173 188.056C636.173 194.1 631.278 199 625.239 199C619.2 199 614.305 194.1 614.305 188.056C614.305 182.012 619.2 177.113 625.239 177.113C631.278 177.113 636.173 182.012 636.173 188.056Z" fill="#D4FF00"/>
</svg>
